<svg width="3736" height="840" viewBox="0 0 3736 840" fill="none" xmlns="http://www.w3.org/2000/svg">
<path d="M970.4 674L832.5 165.1H903.55L959.2 402.75L1012.05 617.65H1015.9L1058.6 402.75L1108.3 165.1H1193L1242.7 402.75L1285.75 617.65H1289.6L1343.85 402.75L1401.6 165.1H1473L1330.9 674H1240.95L1181.45 411.85L1151.7 250.85H1149.95L1119.85 411.85L1060.35 674H970.4ZM1622.49 679.25C1587.73 679.25 1557.16 671.667 1530.79 656.5C1504.66 641.333 1484.36 619.05 1469.89 589.65C1455.43 560.017 1448.19 523.85 1448.19 481.15C1448.19 440.083 1455.66 404.85 1470.59 375.45C1485.53 346.05 1506.06 323.533 1532.19 307.9C1558.33 292.267 1588.08 284.45 1621.44 284.45C1654.58 284.45 1682.93 291.567 1706.49 305.8C1730.29 320.033 1748.61 340.45 1761.44 367.05C1774.28 393.417 1780.58 425.033 1780.34 461.9C1780.34 469.367 1780.11 475.55 1779.64 480.45C1779.18 485.35 1778.83 490.483 1778.59 495.85H1513.29C1514.93 537.85 1525.43 569.7 1544.79 591.4C1564.39 612.867 1589.36 623.6 1619.69 623.6C1645.36 623.6 1665.19 618.233 1679.19 607.5C1693.43 596.533 1702.41 582.533 1706.14 565.5H1769.84C1768.21 589.767 1760.74 610.417 1747.44 627.45C1734.38 644.483 1717.11 657.433 1695.64 666.3C1674.18 674.933 1649.79 679.25 1622.49 679.25ZM1547.94 446.85H1714.89C1714.43 414.183 1706.38 388.517 1690.74 369.85C1675.11 351.183 1651.19 341.85 1618.99 341.85C1585.16 341.85 1559.49 353.4 1541.99 376.5C1524.49 399.367 1514.93 430.983 1513.29 471.35C1515.16 461.783 1518.89 455.367 1524.49 452.1C1530.33 448.6 1538.14 446.85 1547.94 446.85ZM1914.59 678.2C1890.32 678.2 1869.32 673.65 1851.59 664.55C1834.09 655.217 1820.56 642.617 1810.99 626.75C1801.66 610.883 1796.99 592.917 1796.99 572.85C1796.99 552.083 1801.07 534.583 1809.24 520.35C1817.41 505.883 1829.19 494.1 1844.59 485C1859.99 475.667 1878.66 468.667 1900.59 464C1915.06 460.733 1930.34 458.167 1946.44 456.3C1962.77 454.433 1978.41 452.917 1993.34 451.75C2008.27 450.583 2020.99 449.767 2031.49 449.3V427.95C2031.49 397.383 2025.07 375.45 2012.24 362.15C1999.41 348.617 1979.46 341.85 1952.39 341.85C1935.59 341.85 1920.77 344.067 1907.94 348.5C1895.34 352.933 1885.54 361.217 1878.54 373.35C1871.54 385.25 1868.16 402.75 1868.39 425.85H1807.49C1804.69 394.35 1809.12 368.217 1820.79 347.45C1832.46 326.45 1849.96 310.817 1873.29 300.55C1896.62 290.05 1924.27 284.8 1956.24 284.8C1974.44 284.8 1991.82 287.017 2008.39 291.45C2024.96 295.65 2039.66 302.883 2052.49 313.15C2065.32 323.183 2075.47 336.95 2082.94 354.45C2090.41 371.95 2094.14 393.883 2094.14 420.25V674H2030.79L2031.49 591.05C2025.66 617.417 2012.47 638.533 1991.94 654.4C1971.64 670.267 1945.86 678.2 1914.59 678.2ZM1929.64 626.75C1946.67 626.75 1962.31 623.6 1976.54 617.3C1991.01 611 2003.14 602.95 2012.94 593.15C2022.74 583.35 2028.92 573.317 2031.49 563.05V488.85C2017.96 489.783 2002.91 491.417 1986.34 493.75C1969.77 495.85 1955.19 498.417 1942.59 501.45C1917.39 507.283 1898.61 515.1 1886.24 524.9C1874.11 534.7 1868.04 548.817 1868.04 567.25C1868.04 578.217 1870.37 588.25 1875.04 597.35C1879.94 606.217 1886.94 613.333 1896.04 618.7C1905.14 623.833 1916.34 626.517 1929.64 626.75ZM2243.11 674L2105.21 292.15H2179.41L2232.61 465.4L2277.41 607.85H2279.86L2324.31 465.75L2377.86 292.15H2451.71L2313.81 674H2243.11ZM2623.06 679.25C2588.29 679.25 2557.72 671.667 2531.36 656.5C2505.22 641.333 2484.92 619.05 2470.46 589.65C2455.99 560.017 2448.76 523.85 2448.76 481.15C2448.76 440.083 2456.22 404.85 2471.16 375.45C2486.09 346.05 2506.62 323.533 2532.76 307.9C2558.89 292.267 2588.64 284.45 2622.01 284.45C2655.14 284.45 2683.49 291.567 2707.06 305.8C2730.86 320.033 2749.17 340.45 2762.01 367.05C2774.84 393.417 2781.14 425.033 2780.91 461.9C2780.91 469.367 2780.67 475.55 2780.21 480.45C2779.74 485.35 2779.39 490.483 2779.16 495.85H2513.86C2515.49 537.85 2525.99 569.7 2545.36 591.4C2564.96 612.867 2589.92 623.6 2620.26 623.6C2645.92 623.6 2665.76 618.233 2679.76 607.5C2693.99 596.533 2702.97 582.533 2706.71 565.5H2770.41C2768.77 589.767 2761.31 610.417 2748.01 627.45C2734.94 644.483 2717.67 657.433 2696.21 666.3C2674.74 674.933 2650.36 679.25 2623.06 679.25ZM2548.51 446.85H2715.46C2714.99 414.183 2706.94 388.517 2691.31 369.85C2675.67 351.183 2651.76 341.85 2619.56 341.85C2585.72 341.85 2560.06 353.4 2542.56 376.5C2525.06 399.367 2515.49 430.983 2513.86 471.35C2515.72 461.783 2519.46 455.367 2525.06 452.1C2530.89 448.6 2538.71 446.85 2548.51 446.85ZM2933.7 674L2774.45 165.1H2848.65L2917.6 404.85L2975 612.05H2979.2L3036.6 404.85L3105.9 165.1H3180.1L3021.55 674H2933.7ZM3206.65 674V165.1H3313.05L3406.5 436.35L3441.15 555H3442.9L3478.25 436.35L3568.9 165.1H3675.65V674H3610.9V376.85L3614.75 228.1H3612.3L3562.6 371.95L3461.1 674H3425.75L3320.05 371.95L3270.35 228.1H3267.9L3271.75 376.85V674H3206.65Z" fill="black"/>
<path d="M248.9 440.7L310.6 502.4L257.2 555.8L257 556L195.3 617.7H195.2C195.2 617.8 151.2 661.8 151.2 661.8C134.2 678.8 106.6 678.8 89.5 661.8C72.5 644.8 72.5 617.2 89.5 600.1L248.8 440.8L248.9 440.7Z" fill="black"/>
<path d="M573.001 240L529.201 283.8L467.501 345.5L414.001 399L352.301 337.3L467.501 222.1L511.301 178.3C528.301 161.3 555.901 161.3 573.001 178.3C590.001 195.3 590.001 222.9 573.001 240Z" fill="black"/>
<path d="M310.201 609.1L248.601 670.7L216.301 638.5L277.901 576.8L310.201 609.1Z" fill="black"/>
<path d="M174.598 201.5L112.998 263.1L94.3984 244.5C77.3984 227.5 77.3984 199.9 94.3984 182.9C111.398 165.9 138.998 165.9 155.998 182.9L174.598 201.5Z" fill="black"/>
<path d="M446.401 473.3L384.801 534.9L331.401 481.5L269.801 419.9L269.501 419.6L216.801 366.9L278.401 305.3L331.301 358.3L393.001 420L393.201 420.2L446.401 473.3Z" fill="black"/>
<path d="M577.7 666.3C560.7 683.3 533.1 683.3 516.1 666.3L488 638.2L549.6 576.6L577.7 604.7C594.7 621.7 594.7 649.3 577.7 666.3Z" fill="black"/>
<path d="M414.476 169.17L352.816 230.83L385.343 263.357L447.003 201.697L414.476 169.17Z" fill="black"/>
<path d="M80.5 337.6L142.2 399.3L393.6 148.2L360.6 115.2C360.6 115.2 349.1 105 335.4 104.4C321.7 103.8 314.2 108 314.2 108C314.2 108 307.9 110.5 303.9 114.4C303.9 114.4 302.4 115.6 299.9 118.1C297.4 120.6 290.7 127.2 290.7 127.2L80.5 337.6Z" fill="black"/>
<path d="M112.698 534.9L174.298 473.3L59.5983 358.5L27.4983 390.7C27.4983 390.7 15.9983 400.8 16.0983 420.1C16.1983 439.4 27.9983 450 27.9983 450L112.798 534.8L112.698 534.9Z" fill="black"/>
<path d="M269.5 691.7L520.7 440.5L582.4 502.2L364.5 720.5C364.5 720.5 349.6 740.8 321.2 734.3C321.2 734.3 310.5 732.5 301 723.1C291.5 713.7 269.5 691.6 269.5 691.6V691.7Z" fill="black"/>
<path d="M488 365.9L603.2 481.2L635.7 449.1C635.7 449.1 647.7 437.6 647 419.4C646.3 401.2 638.7 393.9 638.7 393.9C638.7 393.9 636.1 390 634.3 388.9L549.6 304.2L488 365.9Z" fill="black"/>
</svg>
