<svg width="7156" height="900" viewBox="0 0 7156 900" fill="none" xmlns="http://www.w3.org/2000/svg">
<mask id="path-1-inside-1_2156_14" fill="white">
<path fill-rule="evenodd" clip-rule="evenodd" d="M100 0H892V892H0V100H100V0Z"/>
</mask>
<path fill-rule="evenodd" clip-rule="evenodd" d="M100 0H892V892H0V100H100V0Z" fill="#D6D5D5"/>
<path d="M892 0V-30H922V0H892ZM100 0H70V-30H100V0ZM892 892H922V922H892V892ZM0 892V922H-30V892H0ZM0 100H-30V70H0V100ZM100 100H130V130H100V100ZM892 30H100V-30H892V30ZM862 892V0H922V892H862ZM0 862H892V922H0V862ZM30 100V892H-30V100H30ZM0 70H100V130H0V70ZM70 100V0H130V100H70Z" fill="black" mask="url(#path-1-inside-1_2156_14)"/>
<rect x="-15" y="15" width="567" height="448" transform="matrix(-1 0 0 1 765 166)" fill="#0E23F3" stroke="black" stroke-width="30"/>
<rect width="299" height="30" transform="matrix(-1 0 0 1 731 728)" fill="black"/>
<rect width="30" height="30" transform="matrix(-1 0 0 1 795 728)" fill="#FF0095"/>
<rect x="29" y="130" width="61" height="732" fill="#ABABAB"/>
<path d="M567 399C565.933 403.267 565.4 408.6 565.4 415C565.4 421.133 565.933 426.467 567 431H599C600.067 426.467 600.6 421.133 600.6 415C600.6 408.6 600.067 403.267 599 399H615C616.067 394.467 616.6 389.133 616.6 383C616.6 376.6 616.067 371.267 615 367H647C645.933 371.267 645.4 376.6 645.4 383C645.4 389.133 645.933 394.467 647 399H663C661.933 403.267 661.4 408.6 661.4 415C661.4 421.133 661.933 426.467 663 431H695C696.067 426.467 696.6 421.133 696.6 415C696.6 408.6 696.067 403.267 695 399H679C680.067 394.467 680.6 389.133 680.6 383C680.6 376.6 680.067 371.267 679 367H663C664.067 362.467 664.6 357.133 664.6 351C664.6 344.6 664.067 339.267 663 335H647C648.067 330.467 648.6 325.133 648.6 319C648.6 312.6 648.067 307.267 647 303H615C613.933 307.267 613.4 312.6 613.4 319C613.4 325.133 613.933 330.467 615 335H599C597.933 339.267 597.4 344.6 597.4 351C597.4 357.133 597.933 362.467 599 367H583C581.933 371.267 581.4 376.6 581.4 383C581.4 389.133 581.933 394.467 583 399H567ZM302.687 399C301.621 403.267 301.087 408.6 301.087 415C301.087 421.133 301.621 426.467 302.687 431H334.687C335.754 426.467 336.287 421.133 336.287 415C336.287 408.6 335.754 403.267 334.687 399H350.687C351.754 394.467 352.287 389.133 352.287 383C352.287 376.6 351.754 371.267 350.687 367H382.687C381.621 371.267 381.087 376.6 381.087 383C381.087 389.133 381.621 394.467 382.687 399H398.687C397.621 403.267 397.087 408.6 397.087 415C397.087 421.133 397.621 426.467 398.687 431H430.687C431.754 426.467 432.287 421.133 432.287 415C432.287 408.6 431.754 403.267 430.687 399H414.687C415.754 394.467 416.287 389.133 416.287 383C416.287 376.6 415.754 371.267 414.687 367H398.687C399.754 362.467 400.287 357.133 400.287 351C400.287 344.6 399.754 339.267 398.687 335H382.687C383.754 330.467 384.287 325.133 384.287 319C384.287 312.6 383.754 307.267 382.687 303H350.687C349.621 307.267 349.087 312.6 349.087 319C349.087 325.133 349.621 330.467 350.687 335H334.687C333.621 339.267 333.087 344.6 333.087 351C333.087 357.133 333.621 362.467 334.687 367H318.687C317.621 371.267 317.087 376.6 317.087 383C317.087 389.133 317.621 394.467 318.687 399H302.687Z" fill="white"/>
<path d="M469 461C467.933 465.267 467.4 470.6 467.4 477C467.4 483.133 467.933 488.467 469 493H549C550.067 488.467 550.6 483.133 550.6 477C550.6 470.6 550.067 465.267 549 461H469Z" fill="white"/>
<path d="M1137.2 886C1125.47 886 1119.6 879.767 1119.6 867.3C1119.6 855.567 1125.47 849.7 1137.2 849.7C1165.07 849.7 1183.77 844.2 1193.3 833.2C1202.83 822.2 1207.6 803.5 1207.6 777.1V185.3C1207.6 164.767 1205.03 151.567 1199.9 145.7C1194.77 139.1 1187.07 134.7 1176.8 132.5C1171.67 131.033 1163.6 129.933 1152.6 129.2C1141.6 127.733 1133.53 126.633 1128.4 125.9C1118.13 124.433 1113 118.567 1113 108.3C1113 97.2999 1118.5 91.0666 1129.5 89.6C1131.7 89.6 1140.87 89.6 1157 89.6C1173.13 88.8666 1191.1 88.5 1210.9 88.5C1231.43 88.5 1250.13 88.5 1267 88.5C1283.87 87.7666 1294.5 87.4 1298.9 87.4C1317.23 87.4 1326.4 96.9333 1326.4 116V774.9C1326.4 802.033 1331.17 821.467 1340.7 833.2C1350.23 844.2 1368.2 849.7 1394.6 849.7C1405.6 849.7 1411.1 855.567 1411.1 867.3C1411.1 879.767 1405.6 886 1394.6 886C1389.47 886 1378.83 885.633 1362.7 884.9C1347.3 884.167 1330.43 883.8 1312.1 883.8C1294.5 883.067 1279.1 882.7 1265.9 882.7C1253.43 882.7 1238.03 883.067 1219.7 883.8C1201.37 883.8 1184.13 884.167 1168 884.9C1152.6 885.633 1142.33 886 1137.2 886ZM1670.76 899.2C1617.96 899.2 1572.13 887.467 1533.26 864C1494.39 839.8 1464.33 807.167 1443.06 766.1C1421.79 725.033 1411.16 678.1 1411.16 625.3C1411.16 572.5 1421.79 525.567 1443.06 484.5C1464.33 443.433 1494.39 411.167 1533.26 387.7C1572.13 364.233 1617.96 352.5 1670.76 352.5C1723.56 352.5 1769.03 364.233 1807.16 387.7C1846.03 411.167 1876.09 443.433 1897.36 484.5C1918.63 525.567 1929.26 572.5 1929.26 625.3C1929.26 678.1 1918.63 725.033 1897.36 766.1C1876.09 807.167 1846.03 839.8 1807.16 864C1769.03 887.467 1723.56 899.2 1670.76 899.2ZM1670.76 861.8C1716.23 861.8 1748.86 840.167 1768.66 796.9C1789.19 752.9 1799.46 695.7 1799.46 625.3C1799.46 555.633 1789.19 499.167 1768.66 455.9C1748.86 411.9 1716.23 389.9 1670.76 389.9C1625.29 389.9 1592.29 411.9 1571.76 455.9C1551.23 499.167 1540.96 555.633 1540.96 625.3C1540.96 695.7 1551.23 752.9 1571.76 796.9C1592.29 840.167 1625.29 861.8 1670.76 861.8ZM2094.28 899.2C2046.61 899.2 2007.01 888.2 1975.48 866.2C1944.68 844.2 1929.28 807.533 1929.28 756.2C1929.28 712.933 1942.48 677.367 1968.88 649.5C1996.01 620.9 2033.78 600 2082.18 586.8C2130.58 572.867 2187.04 566.267 2251.58 567V524.1C2251.58 484.5 2244.61 453.333 2230.68 430.6C2216.74 407.133 2194.38 395.4 2163.58 395.4C2134.98 395.4 2113.34 400.9 2098.68 411.9C2084.01 422.167 2080.34 435.733 2087.68 452.6C2099.41 477.533 2099.04 499.9 2086.58 519.7C2074.11 538.767 2052.84 548.3 2022.78 548.3C2004.44 548.3 1989.04 542.433 1976.58 530.7C1964.11 518.233 1957.88 501 1957.88 479C1957.88 457 1967.04 436.467 1985.38 417.4C2003.71 398.333 2028.64 382.933 2060.18 371.2C2092.44 358.733 2128.74 352.5 2169.08 352.5C2235.81 352.5 2286.04 367.167 2319.78 396.5C2353.51 425.833 2370.38 466.167 2370.38 517.5V750.7C2370.38 780.033 2373.31 799.1 2379.18 807.9C2385.78 815.967 2393.84 820 2403.38 820C2410.71 820 2416.94 818.9 2422.08 816.7C2427.94 813.767 2432.34 810.833 2435.28 807.9C2443.34 799.833 2451.41 800.2 2459.48 809C2463.14 812.667 2464.61 816.7 2463.88 821.1C2463.14 825.5 2461.31 829.9 2458.38 834.3C2448.11 851.167 2435.28 865.467 2419.88 877.2C2405.21 888.2 2387.24 893.7 2365.98 893.7C2338.84 893.7 2315.74 886.733 2296.68 872.8C2278.34 858.867 2265.51 837.233 2258.18 807.9C2244.98 832.1 2225.91 853.367 2200.98 871.7C2176.78 890.033 2141.21 899.2 2094.28 899.2ZM2149.28 833.2C2170.54 833.2 2188.88 827.333 2204.28 815.6C2219.68 803.133 2231.41 788.467 2239.48 771.6C2247.54 754.733 2251.58 738.6 2251.58 723.2V605.5C2193.64 604.033 2147.08 613.2 2111.88 633C2076.68 652.8 2059.08 687.633 2059.08 737.5C2059.08 766.1 2064.58 787.367 2075.58 801.3C2086.58 814.5 2099.04 823.3 2112.98 827.7C2127.64 831.367 2139.74 833.2 2149.28 833.2ZM2667.63 899.2C2627.29 899.2 2589.53 890.4 2554.33 872.8C2519.86 855.2 2491.63 827.333 2469.63 789.2C2448.36 750.333 2437.73 699.367 2437.73 636.3C2437.73 571.767 2448.73 518.6 2470.73 476.8C2493.46 435 2522.06 403.833 2556.53 383.3C2591.73 362.767 2627.66 352.5 2664.33 352.5C2693.66 352.5 2718.23 356.9 2738.03 365.7C2758.56 373.767 2775.79 383.667 2789.73 395.4C2803.66 406.4 2814.66 417.033 2822.73 427.3V185.3C2822.73 168.433 2820.16 156.333 2815.03 149C2809.89 140.933 2800.36 135.433 2786.43 132.5C2781.29 131.033 2773.96 129.933 2764.43 129.2C2754.89 127.733 2747.56 126.633 2742.43 125.9C2732.16 125.167 2727.03 119.3 2727.03 108.3C2727.03 95.8333 2732.53 89.6 2743.53 89.6C2745.73 89.6 2754.53 89.6 2769.93 89.6C2786.06 88.8666 2804.39 88.5 2824.93 88.5C2846.19 88.5 2865.26 88.5 2882.13 88.5C2898.99 87.7666 2909.63 87.4 2914.03 87.4C2932.36 87.4 2941.53 96.9333 2941.53 116V773.8C2941.53 795.067 2943.36 810.833 2947.03 821.1C2950.69 830.633 2959.86 837.233 2974.53 840.9C2979.66 841.633 2985.53 842.733 2992.13 844.2C2998.73 844.933 3004.23 846.033 3008.63 847.5C3018.89 849.7 3024.03 855.567 3024.03 865.1C3024.03 876.1 3018.53 882.333 3007.53 883.8C3005.33 883.8 2996.89 884.167 2982.23 884.9C2967.56 884.9 2950.69 884.9 2931.63 884.9C2912.56 884.9 2894.96 885.267 2878.83 886C2863.43 886 2853.53 886 2849.13 886C2830.79 886 2821.63 877.2 2821.63 859.6V816.7C2820.16 816.7 2816.13 820.367 2809.53 827.7C2802.93 835.033 2793.76 844.567 2782.03 856.3C2770.29 867.3 2754.89 877.2 2735.83 886C2717.49 894.8 2694.76 899.2 2667.63 899.2ZM2692.93 853C2712.73 853 2732.53 846.033 2752.33 832.1C2772.13 818.167 2788.63 798.367 2801.83 772.7C2815.76 746.3 2822.73 715.133 2822.73 679.2V545C2822.73 520.067 2817.59 496.6 2807.33 474.6C2797.06 452.6 2782.39 434.633 2763.33 420.7C2744.26 406.033 2720.79 398.7 2692.93 398.7C2660.66 398.7 2635.36 408.967 2617.03 429.5C2598.69 450.033 2585.49 478.633 2577.43 515.3C2570.09 551.967 2566.43 594.867 2566.43 644C2566.43 690.2 2570.09 727.233 2577.43 755.1C2585.49 782.967 2595.76 803.867 2608.23 817.8C2621.43 831.733 2635.36 841.267 2650.03 846.4C2664.69 850.8 2678.99 853 2692.93 853ZM3123.88 899.2C3098.94 899.2 3077.68 890.767 3060.08 873.9C3043.21 856.3 3034.78 835.033 3034.78 810.1C3034.78 785.167 3043.21 764.267 3060.08 747.4C3077.68 729.8 3098.94 721 3123.88 721C3148.81 721 3169.71 729.8 3186.58 747.4C3204.18 764.267 3212.98 785.167 3212.98 810.1C3212.98 835.033 3204.18 856.3 3186.58 873.9C3169.71 890.767 3148.81 899.2 3123.88 899.2ZM3263.57 886C3252.57 886 3247.07 879.767 3247.07 867.3C3247.07 855.567 3252.57 849.7 3263.57 849.7C3288.5 849.7 3305.37 844.2 3314.17 833.2C3323.7 822.2 3328.47 803.5 3328.47 777.1V460.3C3328.47 445.633 3327.37 434.267 3325.17 426.2C3322.97 417.4 3317.1 412.267 3307.57 410.8C3302.44 409.333 3294.74 408.233 3284.47 407.5C3274.2 406.033 3266.5 404.933 3261.37 404.2C3251.1 402.733 3245.97 396.867 3245.97 386.6C3245.97 374.867 3251.47 369 3262.47 369C3264.67 369 3273.1 368.633 3287.77 367.9C3302.44 367.167 3318.94 366.8 3337.27 366.8C3355.6 366.067 3372.47 365.7 3387.87 365.7C3403.27 365.7 3413.17 365.7 3417.57 365.7C3435.9 366.433 3445.07 375.967 3445.07 394.3V455.9C3455.34 439.033 3468.9 422.9 3485.77 407.5C3503.37 391.367 3524.27 378.167 3548.47 367.9C3572.67 357.633 3599.44 352.5 3628.77 352.5C3655.9 352.5 3680.84 357.633 3703.57 367.9C3726.3 378.167 3744.64 395.4 3758.57 419.6C3772.5 443.8 3779.47 477.167 3779.47 519.7V774.9C3779.47 802.767 3783.5 822.2 3791.57 833.2C3800.37 844.2 3813.94 849.7 3832.27 849.7C3843.27 849.7 3848.77 855.567 3848.77 867.3C3848.77 879.767 3843.27 886 3832.27 886C3827.14 886 3817.97 885.633 3804.77 884.9C3791.57 884.167 3777.27 883.8 3761.87 883.8C3746.47 883.067 3732.17 882.7 3718.97 882.7C3706.5 882.7 3692.57 883.067 3677.17 883.8C3661.77 883.8 3647.47 884.167 3634.27 884.9C3621.8 885.633 3612.64 886 3606.77 886C3595.77 886 3590.27 879.767 3590.27 867.3C3590.27 855.567 3595.77 849.7 3606.77 849.7C3629.5 849.7 3644.17 844.2 3650.77 833.2C3657.37 822.2 3660.67 803.5 3660.67 777.1V535.1C3660.67 493.3 3652.97 463.967 3637.57 447.1C3622.17 429.5 3600.54 420.7 3572.67 420.7C3552.14 420.7 3531.97 427.3 3512.17 440.5C3493.1 452.967 3477.34 469.833 3464.87 491.1C3453.14 512.367 3447.27 535.833 3447.27 561.5V774.9C3447.27 802.767 3451.3 822.2 3459.37 833.2C3467.44 844.2 3479.54 849.7 3495.67 849.7C3507.4 849.7 3513.27 855.567 3513.27 867.3C3513.27 879.767 3507.4 886 3495.67 886C3487.6 886 3472.2 885.633 3449.47 884.9C3427.47 883.433 3406.94 882.7 3387.87 882.7C3375.4 882.7 3360.37 883.067 3342.77 883.8C3325.17 883.8 3309.04 884.167 3294.37 884.9C3279.7 885.633 3269.44 886 3263.57 886ZM4105.76 899.2C4022.16 899.2 3956.53 876.467 3908.86 831C3861.93 785.533 3838.46 720.267 3838.46 635.2C3838.46 581.667 3849.1 533.633 3870.36 491.1C3891.63 448.567 3921.7 414.833 3960.56 389.9C4000.16 364.967 4046 352.5 4098.06 352.5C4137.66 352.5 4172.13 360.2 4201.46 375.6C4230.8 391 4255 411.167 4274.06 436.1C4293.13 461.033 4307.43 488.167 4316.96 517.5C4326.5 546.1 4331.26 574.333 4331.26 602.2C4331.26 613.933 4323.93 619.8 4309.26 619.8H3968.26C3966.8 675.533 3971.56 719.167 3982.56 750.7C3994.3 782.233 4011.53 804.233 4034.26 816.7C4057 829.167 4084.5 835.4 4116.76 835.4C4154.16 835.4 4187.53 827.333 4216.86 811.2C4246.93 795.067 4271.5 774.9 4290.56 750.7C4298.63 741.167 4307.8 739.7 4318.06 746.3C4328.33 752.9 4329.8 761.7 4322.46 772.7C4307.8 794.7 4290.93 815.233 4271.86 834.3C4253.53 853.367 4230.8 869.133 4203.66 881.6C4177.26 893.333 4144.63 899.2 4105.76 899.2ZM3970.46 576.9H4199.26C4200.73 541.7 4198.16 510.167 4191.56 482.3C4185.7 454.433 4175.06 432.433 4159.66 416.3C4145 400.167 4123.73 392.1 4095.86 392.1C4060.66 392.1 4033.16 408.967 4013.36 442.7C3993.56 475.7 3979.26 520.433 3970.46 576.9ZM4543.92 899.2C4512.38 899.2 4484.88 891.867 4461.42 877.2C4437.95 862.533 4426.22 835.033 4426.22 794.7V408.6H4349.22C4337.48 408.6 4331.62 402.733 4331.62 391V387.7C4331.62 382.567 4333.08 378.9 4336.02 376.7C4339.68 373.767 4344.08 371.567 4349.22 370.1C4391.75 355.433 4424.38 333.433 4447.12 304.1C4470.58 274.033 4485.25 232.233 4491.12 178.7C4491.12 166.967 4496.98 161.1 4508.72 161.1H4527.42C4531.82 161.1 4535.85 162.933 4539.52 166.6C4543.18 169.533 4545.02 173.567 4545.02 178.7V365.7H4679.22C4690.95 365.7 4696.82 371.2 4696.82 382.2V391C4696.82 402.733 4690.95 408.6 4679.22 408.6H4545.02V756.2C4545.02 796.533 4565.92 816.7 4607.72 816.7C4627.52 816.7 4645.12 810.833 4660.52 799.1C4676.65 787.367 4688.75 773.8 4696.82 758.4C4702.68 747.4 4711.85 745.567 4724.32 752.9C4729.45 755.833 4732.02 759.5 4732.02 763.9C4732.02 768.3 4730.92 773.433 4728.72 779.3C4716.25 810.833 4694.62 838.7 4663.82 862.9C4633.75 887.1 4593.78 899.2 4543.92 899.2ZM4938.96 899.2C4924.3 899.2 4914.03 890.767 4908.16 873.9C4905.96 868.033 4901.56 855.2 4894.96 835.4C4888.36 815.6 4880.3 791.767 4870.76 763.9C4861.23 735.3 4850.96 705.6 4839.96 674.8C4829.7 643.267 4819.8 613.2 4810.26 584.6C4800.73 555.267 4792.3 530.333 4784.96 509.8C4778.36 488.533 4773.96 474.233 4771.76 466.9C4764.43 443.433 4756.36 426.567 4747.56 416.3C4738.76 406.033 4727.03 400.9 4712.36 400.9C4701.36 400.9 4695.86 394.667 4695.86 382.2C4695.86 370.467 4701.36 364.6 4712.36 364.6C4720.43 364.6 4734.73 365.333 4755.26 366.8C4776.53 367.533 4796.7 367.9 4815.76 367.9C4828.96 367.9 4842.9 367.533 4857.56 366.8C4872.96 366.067 4887.26 365.7 4900.46 365.7C4913.66 364.967 4922.83 364.6 4927.96 364.6C4938.96 364.6 4944.46 370.467 4944.46 382.2C4944.46 394.667 4938.96 400.9 4927.96 400.9C4909.63 400.9 4897.53 404.933 4891.66 413C4885.8 421.067 4884.33 430.967 4887.26 442.7C4889.46 450.033 4893.86 464.333 4900.46 485.6C4907.06 506.867 4914.76 531.433 4923.56 559.3C4932.36 586.433 4940.8 613.567 4948.86 640.7C4957.66 667.1 4965 689.833 4970.86 708.9C4977.46 727.233 4981.13 738.233 4981.86 741.9C4983.33 738.967 4986.63 729.433 4991.76 713.3C4997.63 696.433 5004.23 676.633 5011.56 653.9C5018.9 630.433 5026.23 606.967 5033.56 583.5C5040.9 559.3 5047.5 538.033 5053.36 519.7C5059.23 501.367 5063.26 489.267 5065.46 483.4C5074.26 454.8 5072.43 433.9 5059.96 420.7C5047.5 407.5 5032.83 400.9 5015.96 400.9C5004.96 400.9 4999.46 394.667 4999.46 382.2C4999.46 370.467 5004.96 364.6 5015.96 364.6C5024.03 364.6 5038.33 365.333 5058.86 366.8C5080.13 367.533 5100.3 367.9 5119.36 367.9C5138.43 367.9 5159.7 367.533 5183.16 366.8C5206.63 365.333 5222.4 364.6 5230.46 364.6C5242.2 364.6 5248.06 370.467 5248.06 382.2C5248.06 394.667 5242.2 400.9 5230.46 400.9C5212.13 400.9 5200.03 404.933 5194.16 413C5189.03 421.067 5187.93 430.967 5190.86 442.7C5193.06 450.033 5197.46 464.333 5204.06 485.6C5210.66 506.867 5218.36 531.433 5227.16 559.3C5235.96 587.167 5244.4 614.667 5252.46 641.8C5261.26 668.2 5268.6 690.933 5274.46 710C5281.06 729.067 5284.73 740.433 5285.46 744.1C5286.93 740.433 5290.23 730.167 5295.36 713.3C5300.5 696.433 5306.73 676.633 5314.06 653.9C5321.4 630.433 5328.73 606.967 5336.06 583.5C5344.13 559.3 5351.1 538.033 5356.96 519.7C5362.83 501.367 5366.86 489.267 5369.06 483.4C5377.86 454.8 5375.3 433.9 5361.36 420.7C5348.16 407.5 5332.76 400.9 5315.16 400.9C5304.16 400.9 5298.66 394.667 5298.66 382.2C5298.66 370.467 5304.16 364.6 5315.16 364.6C5323.23 364.6 5335.33 365.333 5351.46 366.8C5367.6 367.533 5385.2 367.9 5404.26 367.9C5423.33 367.9 5439.46 367.533 5452.66 366.8C5466.6 365.333 5477.6 364.6 5485.66 364.6C5496.66 364.6 5502.16 370.467 5502.16 382.2C5502.16 394.667 5496.66 400.9 5485.66 400.9C5471 400.9 5454.86 411.533 5437.26 432.8C5420.4 454.067 5405.36 484.5 5392.16 524.1C5387.03 539.5 5380.06 560.033 5371.26 585.7C5363.2 611.367 5354.03 639.233 5343.76 669.3C5334.23 699.367 5324.7 728.7 5315.16 757.3C5306.36 785.9 5298.3 810.833 5290.96 832.1C5284.36 852.633 5279.6 866.933 5276.66 875C5273.73 882.333 5269.7 888.2 5264.56 892.6C5260.16 897 5252.83 899.2 5242.56 899.2C5227.16 899.2 5216.53 890.767 5210.66 873.9C5207.73 866.567 5202.23 850.8 5194.16 826.6C5186.83 802.4 5177.66 774.533 5166.66 743C5156.4 710.733 5145.76 678.833 5134.76 647.3C5124.5 615.033 5115.33 587.167 5107.26 563.7C5099.93 539.5 5094.8 524.1 5091.86 517.5C5088.93 526.3 5083.43 542.8 5075.36 567C5067.3 591.2 5058.13 619.067 5047.86 650.6C5037.6 681.4 5027.33 712.567 5017.06 744.1C5006.8 774.9 4997.63 802.4 4989.56 826.6C4981.5 850.067 4976 866.2 4973.06 875C4970.13 882.333 4966.46 888.2 4962.06 892.6C4957.66 897 4949.96 899.2 4938.96 899.2ZM5717.94 899.2C5665.14 899.2 5619.31 887.467 5580.44 864C5541.58 839.8 5511.51 807.167 5490.24 766.1C5468.98 725.033 5458.34 678.1 5458.34 625.3C5458.34 572.5 5468.98 525.567 5490.24 484.5C5511.51 443.433 5541.58 411.167 5580.44 387.7C5619.31 364.233 5665.14 352.5 5717.94 352.5C5770.74 352.5 5816.21 364.233 5854.34 387.7C5893.21 411.167 5923.28 443.433 5944.54 484.5C5965.81 525.567 5976.44 572.5 5976.44 625.3C5976.44 678.1 5965.81 725.033 5944.54 766.1C5923.28 807.167 5893.21 839.8 5854.34 864C5816.21 887.467 5770.74 899.2 5717.94 899.2ZM5717.94 861.8C5763.41 861.8 5796.04 840.167 5815.84 796.9C5836.38 752.9 5846.64 695.7 5846.64 625.3C5846.64 555.633 5836.38 499.167 5815.84 455.9C5796.04 411.9 5763.41 389.9 5717.94 389.9C5672.48 389.9 5639.48 411.9 5618.94 455.9C5598.41 499.167 5588.14 555.633 5588.14 625.3C5588.14 695.7 5598.41 752.9 5618.94 796.9C5639.48 840.167 5672.48 861.8 5717.94 861.8ZM5988.56 886C5977.56 886 5972.06 879.767 5972.06 867.3C5972.06 855.567 5977.56 849.7 5988.56 849.7C6018.63 849.7 6040.99 844.2 6055.66 833.2C6070.33 822.2 6077.66 803.5 6077.66 777.1V462.5C6077.66 446.367 6075.83 434.267 6072.16 426.2C6069.23 418.133 6062.63 413.367 6052.36 411.9C6048.69 411.167 6041.73 410.433 6031.46 409.7C6021.19 408.233 6010.93 407.133 6000.66 406.4C5991.13 405.667 5984.53 404.933 5980.86 404.2C5970.59 402 5965.46 396.133 5965.46 386.6C5965.46 374.133 5970.96 367.9 5981.96 367.9C5984.16 367.9 5993.69 367.9 6010.56 367.9C6028.16 367.167 6047.59 366.8 6068.86 366.8C6090.86 366.8 6110.66 366.8 6128.26 366.8C6146.59 366.067 6157.96 365.7 6162.36 365.7C6180.69 365.7 6189.86 375.233 6189.86 394.3V473.5C6200.13 455.9 6213.69 437.933 6230.56 419.6C6247.43 400.533 6266.86 384.767 6288.86 372.3C6311.59 359.1 6336.53 352.5 6363.66 352.5C6406.19 352.5 6437.73 361.3 6458.26 378.9C6478.79 396.5 6489.06 419.233 6489.06 447.1C6489.06 463.233 6482.83 479.733 6470.36 496.6C6458.63 512.733 6440.66 520.8 6416.46 520.8C6389.33 520.8 6370.63 513.833 6360.36 499.9C6350.83 485.233 6346.06 470.933 6346.06 457C6346.06 442.333 6343.86 432.067 6339.46 426.2C6335.06 419.6 6327.36 416.3 6316.36 416.3C6297.29 416.3 6278.23 425.467 6259.16 443.8C6240.83 462.133 6225.43 485.967 6212.96 515.3C6201.23 543.9 6195.36 575.067 6195.36 608.8V774.9C6195.36 802.767 6203.79 822.2 6220.66 833.2C6238.26 844.2 6260.26 849.7 6286.66 849.7C6298.39 849.7 6304.26 855.567 6304.26 867.3C6304.26 879.767 6298.39 886 6286.66 886C6279.33 886 6262.09 885.633 6234.96 884.9C6208.56 883.433 6175.56 882.7 6135.96 882.7C6102.23 882.7 6071.06 883.433 6042.46 884.9C6014.59 885.633 5996.63 886 5988.56 886ZM6458.36 886C6446.63 886 6440.76 879.767 6440.76 867.3C6440.76 855.567 6446.63 849.7 6458.36 849.7C6482.56 849.7 6500.16 844.567 6511.16 834.3C6522.9 824.033 6528.76 807.533 6528.76 784.8V185.3C6528.76 164.767 6526.56 151.567 6522.16 145.7C6518.5 139.1 6511.53 134.7 6501.26 132.5C6496.13 131.033 6487.33 129.933 6474.86 129.2C6463.13 127.733 6454.7 126.633 6449.56 125.9C6439.3 124.433 6434.16 118.567 6434.16 108.3C6434.16 97.2999 6439.66 91.0666 6450.66 89.6C6452.86 89.6 6462.03 89.6 6478.16 89.6C6494.3 88.8666 6512.26 88.5 6532.06 88.5C6552.6 88.5 6571.3 88.5 6588.16 88.5C6605.03 87.7666 6615.66 87.4 6620.06 87.4C6638.4 87.4 6647.56 96.9333 6647.56 116V607.7C6660.03 595.967 6675.06 582.033 6692.66 565.9C6711 549.767 6728.96 533.633 6746.56 517.5C6764.16 501.367 6778.46 487.8 6789.46 476.8C6810.73 455.533 6819.16 437.933 6814.76 424C6811.1 409.333 6800.46 402 6782.86 402C6771.86 402 6766.36 395.767 6766.36 383.3C6766.36 371.567 6771.86 365.7 6782.86 365.7C6790.93 365.7 6805.23 366.067 6825.76 366.8C6846.3 367.533 6866.1 367.9 6885.16 367.9C6904.23 367.9 6923.66 367.533 6943.46 366.8C6964 366.067 6978.3 365.7 6986.36 365.7C6997.36 365.7 7002.86 371.567 7002.86 383.3C7002.86 395.767 6997.36 402 6986.36 402C6962.9 402 6939.43 407.867 6915.96 419.6C6892.5 431.333 6863.53 453.333 6829.06 485.6C6825.4 489.267 6820.63 493.667 6814.76 498.8C6809.63 503.2 6800.83 511.267 6788.36 523C6811.1 561.867 6833.46 600 6855.46 637.4C6878.2 674.8 6898 707.067 6914.86 734.2C6931.73 761.333 6942.73 778.933 6947.86 787C6959.6 803.867 6970.6 818.533 6980.86 831C6991.86 843.467 7004.7 849.7 7019.36 849.7C7030.36 849.7 7035.86 855.567 7035.86 867.3C7035.86 879.767 7030.36 886 7019.36 886C7014.23 886 7004.7 885.633 6990.76 884.9C6977.56 884.167 6963.26 883.8 6947.86 883.8C6932.46 883.067 6918.16 882.7 6904.96 882.7C6885.9 882.7 6867.2 883.433 6848.86 884.9C6830.53 885.633 6817.33 886 6809.26 886C6798.26 886 6792.76 879.767 6792.76 867.3C6792.76 855.567 6798.26 849.7 6809.26 849.7C6820.26 849.7 6827.23 846.4 6830.16 839.8C6833.1 833.2 6831.63 825.5 6825.76 816.7C6822.1 808.633 6813.66 793.233 6800.46 770.5C6787.26 747.767 6771.86 721.367 6754.26 691.3C6737.4 661.233 6720.16 631.533 6702.56 602.2C6690.83 613.2 6680.2 622.733 6670.66 630.8C6661.13 638.867 6653.43 645.833 6647.56 651.7V782.6C6647.56 809.733 6652.7 827.7 6662.96 836.5C6673.96 845.3 6687.53 849.7 6703.66 849.7C6714.66 849.7 6720.16 855.567 6720.16 867.3C6720.16 879.767 6714.66 886 6703.66 886C6698.53 886 6689 885.633 6675.06 884.9C6661.13 884.167 6646.1 883.8 6629.96 883.8C6614.56 883.067 6600.26 882.7 6587.06 882.7C6574.6 882.7 6559.2 883.067 6540.86 883.8C6522.53 883.8 6505.3 884.167 6489.16 884.9C6473.76 885.633 6463.5 886 6458.36 886Z" fill="black"/>
</svg>
