<svg width="7157" height="898" viewBox="0 0 7157 898" fill="none" xmlns="http://www.w3.org/2000/svg">
<mask id="path-1-inside-1_2156_28" fill="white">
<path fill-rule="evenodd" clip-rule="evenodd" d="M100 0H892V892H0V100H100V0Z"/>
</mask>
<path fill-rule="evenodd" clip-rule="evenodd" d="M100 0H892V892H0V100H100V0Z" fill="#DEDEDE"/>
<path d="M892 0V-30H922V0H892ZM100 0H70V-30H100V0ZM892 892H922V922H892V892ZM0 892V922H-30V892H0ZM0 100H-30V70H0V100ZM100 100H130V130H100V100ZM892 30H100V-30H892V30ZM862 892V0H922V892H862ZM0 862H892V922H0V862ZM30 100V892H-30V100H30ZM0 70H100V130H0V70ZM70 100V0H130V100H70Z" fill="black" mask="url(#path-1-inside-1_2156_28)"/>
<rect x="-15" y="15" width="567" height="448" transform="matrix(-1 0 0 1 765 166)" stroke="black" stroke-width="30"/>
<rect width="299" height="30" transform="matrix(-1 0 0 1 731 728)" fill="black"/>
<rect width="30" height="30" transform="matrix(-1 0 0 1 795 728)" fill="black"/>
<rect x="29" y="130" width="61" height="732" fill="#ABABAB"/>
<path d="M567 399C565.933 403.267 565.4 408.6 565.4 415C565.4 421.133 565.933 426.467 567 431H599C600.067 426.467 600.6 421.133 600.6 415C600.6 408.6 600.067 403.267 599 399H615C616.067 394.467 616.6 389.133 616.6 383C616.6 376.6 616.067 371.267 615 367H647C645.933 371.267 645.4 376.6 645.4 383C645.4 389.133 645.933 394.467 647 399H663C661.933 403.267 661.4 408.6 661.4 415C661.4 421.133 661.933 426.467 663 431H695C696.067 426.467 696.6 421.133 696.6 415C696.6 408.6 696.067 403.267 695 399H679C680.067 394.467 680.6 389.133 680.6 383C680.6 376.6 680.067 371.267 679 367H663C664.067 362.467 664.6 357.133 664.6 351C664.6 344.6 664.067 339.267 663 335H647C648.067 330.467 648.6 325.133 648.6 319C648.6 312.6 648.067 307.267 647 303H615C613.933 307.267 613.4 312.6 613.4 319C613.4 325.133 613.933 330.467 615 335H599C597.933 339.267 597.4 344.6 597.4 351C597.4 357.133 597.933 362.467 599 367H583C581.933 371.267 581.4 376.6 581.4 383C581.4 389.133 581.933 394.467 583 399H567ZM302.687 399C301.621 403.267 301.087 408.6 301.087 415C301.087 421.133 301.621 426.467 302.687 431H334.687C335.754 426.467 336.287 421.133 336.287 415C336.287 408.6 335.754 403.267 334.687 399H350.687C351.754 394.467 352.287 389.133 352.287 383C352.287 376.6 351.754 371.267 350.687 367H382.687C381.621 371.267 381.087 376.6 381.087 383C381.087 389.133 381.621 394.467 382.687 399H398.687C397.621 403.267 397.087 408.6 397.087 415C397.087 421.133 397.621 426.467 398.687 431H430.687C431.754 426.467 432.287 421.133 432.287 415C432.287 408.6 431.754 403.267 430.687 399H414.687C415.754 394.467 416.287 389.133 416.287 383C416.287 376.6 415.754 371.267 414.687 367H398.687C399.754 362.467 400.287 357.133 400.287 351C400.287 344.6 399.754 339.267 398.687 335H382.687C383.754 330.467 384.287 325.133 384.287 319C384.287 312.6 383.754 307.267 382.687 303H350.687C349.621 307.267 349.087 312.6 349.087 319C349.087 325.133 349.621 330.467 350.687 335H334.687C333.621 339.267 333.087 344.6 333.087 351C333.087 357.133 333.621 362.467 334.687 367H318.687C317.621 371.267 317.087 376.6 317.087 383C317.087 389.133 317.621 394.467 318.687 399H302.687Z" fill="black"/>
<path d="M469 461C467.933 465.267 467.4 470.6 467.4 477C467.4 483.133 467.933 488.467 469 493H549C550.067 488.467 550.6 483.133 550.6 477C550.6 470.6 550.067 465.267 549 461H469Z" fill="black"/>
<path d="M1138.2 884C1126.47 884 1120.6 877.767 1120.6 865.3C1120.6 853.567 1126.47 847.7 1138.2 847.7C1166.07 847.7 1184.77 842.2 1194.3 831.2C1203.83 820.2 1208.6 801.5 1208.6 775.1V183.3C1208.6 162.767 1206.03 149.567 1200.9 143.7C1195.77 137.1 1188.07 132.7 1177.8 130.5C1172.67 129.033 1164.6 127.933 1153.6 127.2C1142.6 125.733 1134.53 124.633 1129.4 123.9C1119.13 122.433 1114 116.567 1114 106.3C1114 95.2999 1119.5 89.0666 1130.5 87.6C1132.7 87.6 1141.87 87.6 1158 87.6C1174.13 86.8666 1192.1 86.5 1211.9 86.5C1232.43 86.5 1251.13 86.5 1268 86.5C1284.87 85.7666 1295.5 85.4 1299.9 85.4C1318.23 85.4 1327.4 94.9333 1327.4 114V772.9C1327.4 800.033 1332.17 819.467 1341.7 831.2C1351.23 842.2 1369.2 847.7 1395.6 847.7C1406.6 847.7 1412.1 853.567 1412.1 865.3C1412.1 877.767 1406.6 884 1395.6 884C1390.47 884 1379.83 883.633 1363.7 882.9C1348.3 882.167 1331.43 881.8 1313.1 881.8C1295.5 881.067 1280.1 880.7 1266.9 880.7C1254.43 880.7 1239.03 881.067 1220.7 881.8C1202.37 881.8 1185.13 882.167 1169 882.9C1153.6 883.633 1143.33 884 1138.2 884ZM1671.76 897.2C1618.96 897.2 1573.13 885.467 1534.26 862C1495.39 837.8 1465.33 805.167 1444.06 764.1C1422.79 723.033 1412.16 676.1 1412.16 623.3C1412.16 570.5 1422.79 523.567 1444.06 482.5C1465.33 441.433 1495.39 409.167 1534.26 385.7C1573.13 362.233 1618.96 350.5 1671.76 350.5C1724.56 350.5 1770.03 362.233 1808.16 385.7C1847.03 409.167 1877.09 441.433 1898.36 482.5C1919.63 523.567 1930.26 570.5 1930.26 623.3C1930.26 676.1 1919.63 723.033 1898.36 764.1C1877.09 805.167 1847.03 837.8 1808.16 862C1770.03 885.467 1724.56 897.2 1671.76 897.2ZM1671.76 859.8C1717.23 859.8 1749.86 838.167 1769.66 794.9C1790.19 750.9 1800.46 693.7 1800.46 623.3C1800.46 553.633 1790.19 497.167 1769.66 453.9C1749.86 409.9 1717.23 387.9 1671.76 387.9C1626.29 387.9 1593.29 409.9 1572.76 453.9C1552.23 497.167 1541.96 553.633 1541.96 623.3C1541.96 693.7 1552.23 750.9 1572.76 794.9C1593.29 838.167 1626.29 859.8 1671.76 859.8ZM2095.28 897.2C2047.61 897.2 2008.01 886.2 1976.48 864.2C1945.68 842.2 1930.28 805.533 1930.28 754.2C1930.28 710.933 1943.48 675.367 1969.88 647.5C1997.01 618.9 2034.78 598 2083.18 584.8C2131.58 570.867 2188.04 564.267 2252.58 565V522.1C2252.58 482.5 2245.61 451.333 2231.68 428.6C2217.74 405.133 2195.38 393.4 2164.58 393.4C2135.98 393.4 2114.34 398.9 2099.68 409.9C2085.01 420.167 2081.34 433.733 2088.68 450.6C2100.41 475.533 2100.04 497.9 2087.58 517.7C2075.11 536.767 2053.84 546.3 2023.78 546.3C2005.44 546.3 1990.04 540.433 1977.58 528.7C1965.11 516.233 1958.88 499 1958.88 477C1958.88 455 1968.04 434.467 1986.38 415.4C2004.71 396.333 2029.64 380.933 2061.18 369.2C2093.44 356.733 2129.74 350.5 2170.08 350.5C2236.81 350.5 2287.04 365.167 2320.78 394.5C2354.51 423.833 2371.38 464.167 2371.38 515.5V748.7C2371.38 778.033 2374.31 797.1 2380.18 805.9C2386.78 813.967 2394.84 818 2404.38 818C2411.71 818 2417.94 816.9 2423.08 814.7C2428.94 811.767 2433.34 808.833 2436.28 805.9C2444.34 797.833 2452.41 798.2 2460.48 807C2464.14 810.667 2465.61 814.7 2464.88 819.1C2464.14 823.5 2462.31 827.9 2459.38 832.3C2449.11 849.167 2436.28 863.467 2420.88 875.2C2406.21 886.2 2388.24 891.7 2366.98 891.7C2339.84 891.7 2316.74 884.733 2297.68 870.8C2279.34 856.867 2266.51 835.233 2259.18 805.9C2245.98 830.1 2226.91 851.367 2201.98 869.7C2177.78 888.033 2142.21 897.2 2095.28 897.2ZM2150.28 831.2C2171.54 831.2 2189.88 825.333 2205.28 813.6C2220.68 801.133 2232.41 786.467 2240.48 769.6C2248.54 752.733 2252.58 736.6 2252.58 721.2V603.5C2194.64 602.033 2148.08 611.2 2112.88 631C2077.68 650.8 2060.08 685.633 2060.08 735.5C2060.08 764.1 2065.58 785.367 2076.58 799.3C2087.58 812.5 2100.04 821.3 2113.98 825.7C2128.64 829.367 2140.74 831.2 2150.28 831.2ZM2668.63 897.2C2628.29 897.2 2590.53 888.4 2555.33 870.8C2520.86 853.2 2492.63 825.333 2470.63 787.2C2449.36 748.333 2438.73 697.367 2438.73 634.3C2438.73 569.767 2449.73 516.6 2471.73 474.8C2494.46 433 2523.06 401.833 2557.53 381.3C2592.73 360.767 2628.66 350.5 2665.33 350.5C2694.66 350.5 2719.23 354.9 2739.03 363.7C2759.56 371.767 2776.79 381.667 2790.73 393.4C2804.66 404.4 2815.66 415.033 2823.73 425.3V183.3C2823.73 166.433 2821.16 154.333 2816.03 147C2810.89 138.933 2801.36 133.433 2787.43 130.5C2782.29 129.033 2774.96 127.933 2765.43 127.2C2755.89 125.733 2748.56 124.633 2743.43 123.9C2733.16 123.167 2728.03 117.3 2728.03 106.3C2728.03 93.8333 2733.53 87.6 2744.53 87.6C2746.73 87.6 2755.53 87.6 2770.93 87.6C2787.06 86.8666 2805.39 86.5 2825.93 86.5C2847.19 86.5 2866.26 86.5 2883.13 86.5C2899.99 85.7666 2910.63 85.4 2915.03 85.4C2933.36 85.4 2942.53 94.9333 2942.53 114V771.8C2942.53 793.067 2944.36 808.833 2948.03 819.1C2951.69 828.633 2960.86 835.233 2975.53 838.9C2980.66 839.633 2986.53 840.733 2993.13 842.2C2999.73 842.933 3005.23 844.033 3009.63 845.5C3019.89 847.7 3025.03 853.567 3025.03 863.1C3025.03 874.1 3019.53 880.333 3008.53 881.8C3006.33 881.8 2997.89 882.167 2983.23 882.9C2968.56 882.9 2951.69 882.9 2932.63 882.9C2913.56 882.9 2895.96 883.267 2879.83 884C2864.43 884 2854.53 884 2850.13 884C2831.79 884 2822.63 875.2 2822.63 857.6V814.7C2821.16 814.7 2817.13 818.367 2810.53 825.7C2803.93 833.033 2794.76 842.567 2783.03 854.3C2771.29 865.3 2755.89 875.2 2736.83 884C2718.49 892.8 2695.76 897.2 2668.63 897.2ZM2693.93 851C2713.73 851 2733.53 844.033 2753.33 830.1C2773.13 816.167 2789.63 796.367 2802.83 770.7C2816.76 744.3 2823.73 713.133 2823.73 677.2V543C2823.73 518.067 2818.59 494.6 2808.33 472.6C2798.06 450.6 2783.39 432.633 2764.33 418.7C2745.26 404.033 2721.79 396.7 2693.93 396.7C2661.66 396.7 2636.36 406.967 2618.03 427.5C2599.69 448.033 2586.49 476.633 2578.43 513.3C2571.09 549.967 2567.43 592.867 2567.43 642C2567.43 688.2 2571.09 725.233 2578.43 753.1C2586.49 780.967 2596.76 801.867 2609.23 815.8C2622.43 829.733 2636.36 839.267 2651.03 844.4C2665.69 848.8 2679.99 851 2693.93 851ZM3124.88 897.2C3099.94 897.2 3078.68 888.767 3061.08 871.9C3044.21 854.3 3035.78 833.033 3035.78 808.1C3035.78 783.167 3044.21 762.267 3061.08 745.4C3078.68 727.8 3099.94 719 3124.88 719C3149.81 719 3170.71 727.8 3187.58 745.4C3205.18 762.267 3213.98 783.167 3213.98 808.1C3213.98 833.033 3205.18 854.3 3187.58 871.9C3170.71 888.767 3149.81 897.2 3124.88 897.2ZM3264.57 884C3253.57 884 3248.07 877.767 3248.07 865.3C3248.07 853.567 3253.57 847.7 3264.57 847.7C3289.5 847.7 3306.37 842.2 3315.17 831.2C3324.7 820.2 3329.47 801.5 3329.47 775.1V458.3C3329.47 443.633 3328.37 432.267 3326.17 424.2C3323.97 415.4 3318.1 410.267 3308.57 408.8C3303.44 407.333 3295.74 406.233 3285.47 405.5C3275.2 404.033 3267.5 402.933 3262.37 402.2C3252.1 400.733 3246.97 394.867 3246.97 384.6C3246.97 372.867 3252.47 367 3263.47 367C3265.67 367 3274.1 366.633 3288.77 365.9C3303.44 365.167 3319.94 364.8 3338.27 364.8C3356.6 364.067 3373.47 363.7 3388.87 363.7C3404.27 363.7 3414.17 363.7 3418.57 363.7C3436.9 364.433 3446.07 373.967 3446.07 392.3V453.9C3456.34 437.033 3469.9 420.9 3486.77 405.5C3504.37 389.367 3525.27 376.167 3549.47 365.9C3573.67 355.633 3600.44 350.5 3629.77 350.5C3656.9 350.5 3681.84 355.633 3704.57 365.9C3727.3 376.167 3745.64 393.4 3759.57 417.6C3773.5 441.8 3780.47 475.167 3780.47 517.7V772.9C3780.47 800.767 3784.5 820.2 3792.57 831.2C3801.37 842.2 3814.94 847.7 3833.27 847.7C3844.27 847.7 3849.77 853.567 3849.77 865.3C3849.77 877.767 3844.27 884 3833.27 884C3828.14 884 3818.97 883.633 3805.77 882.9C3792.57 882.167 3778.27 881.8 3762.87 881.8C3747.47 881.067 3733.17 880.7 3719.97 880.7C3707.5 880.7 3693.57 881.067 3678.17 881.8C3662.77 881.8 3648.47 882.167 3635.27 882.9C3622.8 883.633 3613.64 884 3607.77 884C3596.77 884 3591.27 877.767 3591.27 865.3C3591.27 853.567 3596.77 847.7 3607.77 847.7C3630.5 847.7 3645.17 842.2 3651.77 831.2C3658.37 820.2 3661.67 801.5 3661.67 775.1V533.1C3661.67 491.3 3653.97 461.967 3638.57 445.1C3623.17 427.5 3601.54 418.7 3573.67 418.7C3553.14 418.7 3532.97 425.3 3513.17 438.5C3494.1 450.967 3478.34 467.833 3465.87 489.1C3454.14 510.367 3448.27 533.833 3448.27 559.5V772.9C3448.27 800.767 3452.3 820.2 3460.37 831.2C3468.44 842.2 3480.54 847.7 3496.67 847.7C3508.4 847.7 3514.27 853.567 3514.27 865.3C3514.27 877.767 3508.4 884 3496.67 884C3488.6 884 3473.2 883.633 3450.47 882.9C3428.47 881.433 3407.94 880.7 3388.87 880.7C3376.4 880.7 3361.37 881.067 3343.77 881.8C3326.17 881.8 3310.04 882.167 3295.37 882.9C3280.7 883.633 3270.44 884 3264.57 884ZM4106.76 897.2C4023.16 897.2 3957.53 874.467 3909.86 829C3862.93 783.533 3839.46 718.267 3839.46 633.2C3839.46 579.667 3850.1 531.633 3871.36 489.1C3892.63 446.567 3922.7 412.833 3961.56 387.9C4001.16 362.967 4047 350.5 4099.06 350.5C4138.66 350.5 4173.13 358.2 4202.46 373.6C4231.8 389 4256 409.167 4275.06 434.1C4294.13 459.033 4308.43 486.167 4317.96 515.5C4327.5 544.1 4332.26 572.333 4332.26 600.2C4332.26 611.933 4324.93 617.8 4310.26 617.8H3969.26C3967.8 673.533 3972.56 717.167 3983.56 748.7C3995.3 780.233 4012.53 802.233 4035.26 814.7C4058 827.167 4085.5 833.4 4117.76 833.4C4155.16 833.4 4188.53 825.333 4217.86 809.2C4247.93 793.067 4272.5 772.9 4291.56 748.7C4299.63 739.167 4308.8 737.7 4319.06 744.3C4329.33 750.9 4330.8 759.7 4323.46 770.7C4308.8 792.7 4291.93 813.233 4272.86 832.3C4254.53 851.367 4231.8 867.133 4204.66 879.6C4178.26 891.333 4145.63 897.2 4106.76 897.2ZM3971.46 574.9H4200.26C4201.73 539.7 4199.16 508.167 4192.56 480.3C4186.7 452.433 4176.06 430.433 4160.66 414.3C4146 398.167 4124.73 390.1 4096.86 390.1C4061.66 390.1 4034.16 406.967 4014.36 440.7C3994.56 473.7 3980.26 518.433 3971.46 574.9ZM4544.92 897.2C4513.38 897.2 4485.88 889.867 4462.42 875.2C4438.95 860.533 4427.22 833.033 4427.22 792.7V406.6H4350.22C4338.48 406.6 4332.62 400.733 4332.62 389V385.7C4332.62 380.567 4334.08 376.9 4337.02 374.7C4340.68 371.767 4345.08 369.567 4350.22 368.1C4392.75 353.433 4425.38 331.433 4448.12 302.1C4471.58 272.033 4486.25 230.233 4492.12 176.7C4492.12 164.967 4497.98 159.1 4509.72 159.1H4528.42C4532.82 159.1 4536.85 160.933 4540.52 164.6C4544.18 167.533 4546.02 171.567 4546.02 176.7V363.7H4680.22C4691.95 363.7 4697.82 369.2 4697.82 380.2V389C4697.82 400.733 4691.95 406.6 4680.22 406.6H4546.02V754.2C4546.02 794.533 4566.92 814.7 4608.72 814.7C4628.52 814.7 4646.12 808.833 4661.52 797.1C4677.65 785.367 4689.75 771.8 4697.82 756.4C4703.68 745.4 4712.85 743.567 4725.32 750.9C4730.45 753.833 4733.02 757.5 4733.02 761.9C4733.02 766.3 4731.92 771.433 4729.72 777.3C4717.25 808.833 4695.62 836.7 4664.82 860.9C4634.75 885.1 4594.78 897.2 4544.92 897.2ZM4939.96 897.2C4925.3 897.2 4915.03 888.767 4909.16 871.9C4906.96 866.033 4902.56 853.2 4895.96 833.4C4889.36 813.6 4881.3 789.767 4871.76 761.9C4862.23 733.3 4851.96 703.6 4840.96 672.8C4830.7 641.267 4820.8 611.2 4811.26 582.6C4801.73 553.267 4793.3 528.333 4785.96 507.8C4779.36 486.533 4774.96 472.233 4772.76 464.9C4765.43 441.433 4757.36 424.567 4748.56 414.3C4739.76 404.033 4728.03 398.9 4713.36 398.9C4702.36 398.9 4696.86 392.667 4696.86 380.2C4696.86 368.467 4702.36 362.6 4713.36 362.6C4721.43 362.6 4735.73 363.333 4756.26 364.8C4777.53 365.533 4797.7 365.9 4816.76 365.9C4829.96 365.9 4843.9 365.533 4858.56 364.8C4873.96 364.067 4888.26 363.7 4901.46 363.7C4914.66 362.967 4923.83 362.6 4928.96 362.6C4939.96 362.6 4945.46 368.467 4945.46 380.2C4945.46 392.667 4939.96 398.9 4928.96 398.9C4910.63 398.9 4898.53 402.933 4892.66 411C4886.8 419.067 4885.33 428.967 4888.26 440.7C4890.46 448.033 4894.86 462.333 4901.46 483.6C4908.06 504.867 4915.76 529.433 4924.56 557.3C4933.36 584.433 4941.8 611.567 4949.86 638.7C4958.66 665.1 4966 687.833 4971.86 706.9C4978.46 725.233 4982.13 736.233 4982.86 739.9C4984.33 736.967 4987.63 727.433 4992.76 711.3C4998.63 694.433 5005.23 674.633 5012.56 651.9C5019.9 628.433 5027.23 604.967 5034.56 581.5C5041.9 557.3 5048.5 536.033 5054.36 517.7C5060.23 499.367 5064.26 487.267 5066.46 481.4C5075.26 452.8 5073.43 431.9 5060.96 418.7C5048.5 405.5 5033.83 398.9 5016.96 398.9C5005.96 398.9 5000.46 392.667 5000.46 380.2C5000.46 368.467 5005.96 362.6 5016.96 362.6C5025.03 362.6 5039.33 363.333 5059.86 364.8C5081.13 365.533 5101.3 365.9 5120.36 365.9C5139.43 365.9 5160.7 365.533 5184.16 364.8C5207.63 363.333 5223.4 362.6 5231.46 362.6C5243.2 362.6 5249.06 368.467 5249.06 380.2C5249.06 392.667 5243.2 398.9 5231.46 398.9C5213.13 398.9 5201.03 402.933 5195.16 411C5190.03 419.067 5188.93 428.967 5191.86 440.7C5194.06 448.033 5198.46 462.333 5205.06 483.6C5211.66 504.867 5219.36 529.433 5228.16 557.3C5236.96 585.167 5245.4 612.667 5253.46 639.8C5262.26 666.2 5269.6 688.933 5275.46 708C5282.06 727.067 5285.73 738.433 5286.46 742.1C5287.93 738.433 5291.23 728.167 5296.36 711.3C5301.5 694.433 5307.73 674.633 5315.06 651.9C5322.4 628.433 5329.73 604.967 5337.06 581.5C5345.13 557.3 5352.1 536.033 5357.96 517.7C5363.83 499.367 5367.86 487.267 5370.06 481.4C5378.86 452.8 5376.3 431.9 5362.36 418.7C5349.16 405.5 5333.76 398.9 5316.16 398.9C5305.16 398.9 5299.66 392.667 5299.66 380.2C5299.66 368.467 5305.16 362.6 5316.16 362.6C5324.23 362.6 5336.33 363.333 5352.46 364.8C5368.6 365.533 5386.2 365.9 5405.26 365.9C5424.33 365.9 5440.46 365.533 5453.66 364.8C5467.6 363.333 5478.6 362.6 5486.66 362.6C5497.66 362.6 5503.16 368.467 5503.16 380.2C5503.16 392.667 5497.66 398.9 5486.66 398.9C5472 398.9 5455.86 409.533 5438.26 430.8C5421.4 452.067 5406.36 482.5 5393.16 522.1C5388.03 537.5 5381.06 558.033 5372.26 583.7C5364.2 609.367 5355.03 637.233 5344.76 667.3C5335.23 697.367 5325.7 726.7 5316.16 755.3C5307.36 783.9 5299.3 808.833 5291.96 830.1C5285.36 850.633 5280.6 864.933 5277.66 873C5274.73 880.333 5270.7 886.2 5265.56 890.6C5261.16 895 5253.83 897.2 5243.56 897.2C5228.16 897.2 5217.53 888.767 5211.66 871.9C5208.73 864.567 5203.23 848.8 5195.16 824.6C5187.83 800.4 5178.66 772.533 5167.66 741C5157.4 708.733 5146.76 676.833 5135.76 645.3C5125.5 613.033 5116.33 585.167 5108.26 561.7C5100.93 537.5 5095.8 522.1 5092.86 515.5C5089.93 524.3 5084.43 540.8 5076.36 565C5068.3 589.2 5059.13 617.067 5048.86 648.6C5038.6 679.4 5028.33 710.567 5018.06 742.1C5007.8 772.9 4998.63 800.4 4990.56 824.6C4982.5 848.067 4977 864.2 4974.06 873C4971.13 880.333 4967.46 886.2 4963.06 890.6C4958.66 895 4950.96 897.2 4939.96 897.2ZM5718.94 897.2C5666.14 897.2 5620.31 885.467 5581.44 862C5542.58 837.8 5512.51 805.167 5491.24 764.1C5469.98 723.033 5459.34 676.1 5459.34 623.3C5459.34 570.5 5469.98 523.567 5491.24 482.5C5512.51 441.433 5542.58 409.167 5581.44 385.7C5620.31 362.233 5666.14 350.5 5718.94 350.5C5771.74 350.5 5817.21 362.233 5855.34 385.7C5894.21 409.167 5924.28 441.433 5945.54 482.5C5966.81 523.567 5977.44 570.5 5977.44 623.3C5977.44 676.1 5966.81 723.033 5945.54 764.1C5924.28 805.167 5894.21 837.8 5855.34 862C5817.21 885.467 5771.74 897.2 5718.94 897.2ZM5718.94 859.8C5764.41 859.8 5797.04 838.167 5816.84 794.9C5837.38 750.9 5847.64 693.7 5847.64 623.3C5847.64 553.633 5837.38 497.167 5816.84 453.9C5797.04 409.9 5764.41 387.9 5718.94 387.9C5673.48 387.9 5640.48 409.9 5619.94 453.9C5599.41 497.167 5589.14 553.633 5589.14 623.3C5589.14 693.7 5599.41 750.9 5619.94 794.9C5640.48 838.167 5673.48 859.8 5718.94 859.8ZM5989.56 884C5978.56 884 5973.06 877.767 5973.06 865.3C5973.06 853.567 5978.56 847.7 5989.56 847.7C6019.63 847.7 6041.99 842.2 6056.66 831.2C6071.33 820.2 6078.66 801.5 6078.66 775.1V460.5C6078.66 444.367 6076.83 432.267 6073.16 424.2C6070.23 416.133 6063.63 411.367 6053.36 409.9C6049.69 409.167 6042.73 408.433 6032.46 407.7C6022.19 406.233 6011.93 405.133 6001.66 404.4C5992.13 403.667 5985.53 402.933 5981.86 402.2C5971.59 400 5966.46 394.133 5966.46 384.6C5966.46 372.133 5971.96 365.9 5982.96 365.9C5985.16 365.9 5994.69 365.9 6011.56 365.9C6029.16 365.167 6048.59 364.8 6069.86 364.8C6091.86 364.8 6111.66 364.8 6129.26 364.8C6147.59 364.067 6158.96 363.7 6163.36 363.7C6181.69 363.7 6190.86 373.233 6190.86 392.3V471.5C6201.13 453.9 6214.69 435.933 6231.56 417.6C6248.43 398.533 6267.86 382.767 6289.86 370.3C6312.59 357.1 6337.53 350.5 6364.66 350.5C6407.19 350.5 6438.73 359.3 6459.26 376.9C6479.79 394.5 6490.06 417.233 6490.06 445.1C6490.06 461.233 6483.83 477.733 6471.36 494.6C6459.63 510.733 6441.66 518.8 6417.46 518.8C6390.33 518.8 6371.63 511.833 6361.36 497.9C6351.83 483.233 6347.06 468.933 6347.06 455C6347.06 440.333 6344.86 430.067 6340.46 424.2C6336.06 417.6 6328.36 414.3 6317.36 414.3C6298.29 414.3 6279.23 423.467 6260.16 441.8C6241.83 460.133 6226.43 483.967 6213.96 513.3C6202.23 541.9 6196.36 573.067 6196.36 606.8V772.9C6196.36 800.767 6204.79 820.2 6221.66 831.2C6239.26 842.2 6261.26 847.7 6287.66 847.7C6299.39 847.7 6305.26 853.567 6305.26 865.3C6305.26 877.767 6299.39 884 6287.66 884C6280.33 884 6263.09 883.633 6235.96 882.9C6209.56 881.433 6176.56 880.7 6136.96 880.7C6103.23 880.7 6072.06 881.433 6043.46 882.9C6015.59 883.633 5997.63 884 5989.56 884ZM6459.36 884C6447.63 884 6441.76 877.767 6441.76 865.3C6441.76 853.567 6447.63 847.7 6459.36 847.7C6483.56 847.7 6501.16 842.567 6512.16 832.3C6523.9 822.033 6529.76 805.533 6529.76 782.8V183.3C6529.76 162.767 6527.56 149.567 6523.16 143.7C6519.5 137.1 6512.53 132.7 6502.26 130.5C6497.13 129.033 6488.33 127.933 6475.86 127.2C6464.13 125.733 6455.7 124.633 6450.56 123.9C6440.3 122.433 6435.16 116.567 6435.16 106.3C6435.16 95.2999 6440.66 89.0666 6451.66 87.6C6453.86 87.6 6463.03 87.6 6479.16 87.6C6495.3 86.8666 6513.26 86.5 6533.06 86.5C6553.6 86.5 6572.3 86.5 6589.16 86.5C6606.03 85.7666 6616.66 85.4 6621.06 85.4C6639.4 85.4 6648.56 94.9333 6648.56 114V605.7C6661.03 593.967 6676.06 580.033 6693.66 563.9C6712 547.767 6729.96 531.633 6747.56 515.5C6765.16 499.367 6779.46 485.8 6790.46 474.8C6811.73 453.533 6820.16 435.933 6815.76 422C6812.1 407.333 6801.46 400 6783.86 400C6772.86 400 6767.36 393.767 6767.36 381.3C6767.36 369.567 6772.86 363.7 6783.86 363.7C6791.93 363.7 6806.23 364.067 6826.76 364.8C6847.3 365.533 6867.1 365.9 6886.16 365.9C6905.23 365.9 6924.66 365.533 6944.46 364.8C6965 364.067 6979.3 363.7 6987.36 363.7C6998.36 363.7 7003.86 369.567 7003.86 381.3C7003.86 393.767 6998.36 400 6987.36 400C6963.9 400 6940.43 405.867 6916.96 417.6C6893.5 429.333 6864.53 451.333 6830.06 483.6C6826.4 487.267 6821.63 491.667 6815.76 496.8C6810.63 501.2 6801.83 509.267 6789.36 521C6812.1 559.867 6834.46 598 6856.46 635.4C6879.2 672.8 6899 705.067 6915.86 732.2C6932.73 759.333 6943.73 776.933 6948.86 785C6960.6 801.867 6971.6 816.533 6981.86 829C6992.86 841.467 7005.7 847.7 7020.36 847.7C7031.36 847.7 7036.86 853.567 7036.86 865.3C7036.86 877.767 7031.36 884 7020.36 884C7015.23 884 7005.7 883.633 6991.76 882.9C6978.56 882.167 6964.26 881.8 6948.86 881.8C6933.46 881.067 6919.16 880.7 6905.96 880.7C6886.9 880.7 6868.2 881.433 6849.86 882.9C6831.53 883.633 6818.33 884 6810.26 884C6799.26 884 6793.76 877.767 6793.76 865.3C6793.76 853.567 6799.26 847.7 6810.26 847.7C6821.26 847.7 6828.23 844.4 6831.16 837.8C6834.1 831.2 6832.63 823.5 6826.76 814.7C6823.1 806.633 6814.66 791.233 6801.46 768.5C6788.26 745.767 6772.86 719.367 6755.26 689.3C6738.4 659.233 6721.16 629.533 6703.56 600.2C6691.83 611.2 6681.2 620.733 6671.66 628.8C6662.13 636.867 6654.43 643.833 6648.56 649.7V780.6C6648.56 807.733 6653.7 825.7 6663.96 834.5C6674.96 843.3 6688.53 847.7 6704.66 847.7C6715.66 847.7 6721.16 853.567 6721.16 865.3C6721.16 877.767 6715.66 884 6704.66 884C6699.53 884 6690 883.633 6676.06 882.9C6662.13 882.167 6647.1 881.8 6630.96 881.8C6615.56 881.067 6601.26 880.7 6588.06 880.7C6575.6 880.7 6560.2 881.067 6541.86 881.8C6523.53 881.8 6506.3 882.167 6490.16 882.9C6474.76 883.633 6464.5 884 6459.36 884Z" fill="#D9D9D9"/>
</svg>
