<svg width="668" height="668" viewBox="0 0 668 668" fill="none" xmlns="http://www.w3.org/2000/svg">
<path d="M248.9 354.7L310.6 416.4L257.2 469.8L257 470L195.3 531.7H195.2C195.2 531.8 151.2 575.8 151.2 575.8C134.2 592.8 106.6 592.8 89.5 575.8C72.5 558.8 72.5 531.2 89.5 514.1L248.8 354.8L248.9 354.7Z" fill="black"/>
<path d="M573.001 154L529.201 197.8L467.501 259.5L414.001 313L352.301 251.3L467.501 136.1L511.301 92.2998C528.301 75.2998 555.901 75.2998 573.001 92.2998C590.001 109.3 590.001 136.9 573.001 154Z" fill="black"/>
<path d="M310.201 523.1L248.601 584.7L216.301 552.5L277.901 490.8L310.201 523.1Z" fill="black"/>
<path d="M174.598 115.5L112.998 177.1L94.3984 158.5C77.3984 141.5 77.3984 113.9 94.3984 96.9004C111.398 79.9004 138.998 79.9004 155.998 96.9004L174.598 115.5Z" fill="black"/>
<path d="M446.401 387.3L384.801 448.9L331.401 395.5L269.801 333.9L269.501 333.6L216.801 280.9L278.401 219.3L331.301 272.3L393.001 334L393.201 334.2L446.401 387.3Z" fill="black"/>
<path d="M577.7 580.3C560.7 597.3 533.1 597.3 516.1 580.3L488 552.2L549.6 490.6L577.7 518.7C594.7 535.7 594.7 563.3 577.7 580.3Z" fill="black"/>
<path d="M414.476 83.1704L352.816 144.83L385.343 177.357L447.003 115.697L414.476 83.1704Z" fill="black"/>
<path d="M80.5 251.6L142.2 313.3L393.6 62.2005L360.6 29.2005C360.6 29.2005 349.1 19.0005 335.4 18.4005C321.7 17.8005 314.2 22.0005 314.2 22.0005C314.2 22.0005 307.9 24.5005 303.9 28.4005C303.9 28.4005 302.4 29.6005 299.9 32.1005C297.4 34.6005 290.7 41.2005 290.7 41.2005L80.5 251.6Z" fill="black"/>
<path d="M112.698 448.9L174.298 387.3L59.5983 272.5L27.4983 304.7C27.4983 304.7 15.9983 314.8 16.0983 334.1C16.1983 353.4 27.9983 364 27.9983 364L112.798 448.8L112.698 448.9Z" fill="black"/>
<path d="M269.5 605.7L520.7 354.5L582.4 416.2L364.5 634.5C364.5 634.5 349.6 654.8 321.2 648.3C321.2 648.3 310.5 646.5 301 637.1C291.5 627.7 269.5 605.6 269.5 605.6V605.7Z" fill="black"/>
<path d="M488 279.9L603.2 395.2L635.7 363.1C635.7 363.1 647.7 351.6 647 333.4C646.3 315.2 638.7 307.9 638.7 307.9C638.7 307.9 636.1 304 634.3 302.9L549.6 218.2L488 279.9Z" fill="black"/>
</svg>
