<svg width="1000" height="1000" viewBox="0 0 1000 1000" fill="none" xmlns="http://www.w3.org/2000/svg">
<path d="M500 1000C776.142 1000 1000 776.142 1000 500C1000 223.858 776.142 0 500 0C223.858 0 0 223.858 0 500C0 776.142 223.858 1000 500 1000Z" fill="black"/>
<path d="M414.9 520.7L476.6 582.4L423.2 635.8L423 636L361.3 697.7H361.2C361.2 697.8 317.2 741.8 317.2 741.8C300.2 758.8 272.6 758.8 255.5 741.8C238.5 724.8 238.5 697.2 255.5 680.1L414.8 520.8L414.9 520.7Z" fill="white"/>
<path d="M739.001 320L695.201 363.8L633.501 425.5L580.001 479L518.301 417.3L633.501 302.1L677.301 258.3C694.301 241.3 721.901 241.3 739.001 258.3C756.001 275.3 756.001 302.9 739.001 320Z" fill="white"/>
<path d="M476.201 689.1L414.601 750.7L382.301 718.5L443.901 656.8L476.201 689.1Z" fill="white"/>
<path d="M340.598 281.5L278.998 343.1L260.398 324.5C243.398 307.5 243.398 279.9 260.398 262.9C277.398 245.9 304.998 245.9 321.998 262.9L340.598 281.5Z" fill="white"/>
<path d="M612.401 553.3L550.801 614.9L497.401 561.5L435.801 499.9L435.501 499.6L382.801 446.9L444.401 385.3L497.301 438.3L559.001 500L559.201 500.2L612.401 553.3Z" fill="white"/>
<path d="M743.7 746.3C726.7 763.3 699.1 763.3 682.1 746.3L654 718.2L715.6 656.6L743.7 684.7C760.7 701.7 760.7 729.3 743.7 746.3Z" fill="white"/>
<path d="M580.476 249.17L518.816 310.83L551.343 343.357L613.003 281.697L580.476 249.17Z" fill="white"/>
<path d="M246.5 417.6L308.2 479.3L559.6 228.2L526.6 195.2C526.6 195.2 515.1 185 501.4 184.4C487.7 183.8 480.2 188 480.2 188C480.2 188 473.9 190.5 469.9 194.4C469.9 194.4 468.4 195.6 465.9 198.1C463.4 200.6 456.7 207.2 456.7 207.2L246.5 417.6Z" fill="white"/>
<path d="M278.698 614.9L340.298 553.3L225.598 438.5L193.498 470.7C193.498 470.7 181.998 480.8 182.098 500.1C182.198 519.4 193.998 530 193.998 530L278.798 614.8L278.698 614.9Z" fill="white"/>
<path d="M435.5 771.7L686.7 520.5L748.4 582.2L530.5 800.5C530.5 800.5 515.6 820.8 487.2 814.3C487.2 814.3 476.5 812.5 467 803.1C457.5 793.7 435.5 771.6 435.5 771.6V771.7Z" fill="white"/>
<path d="M654 445.9L769.2 561.2L801.7 529.1C801.7 529.1 813.7 517.6 813 499.4C812.3 481.2 804.7 473.9 804.7 473.9C804.7 473.9 802.1 470 800.3 468.9L715.6 384.2L654 445.9Z" fill="white"/>
</svg>
